# Test cube with vertex colors and normals
# Format: v x y z r g b (OBJ extension for vertex colors)

# 8 vertices with unique RGB colors
v -0.5 -0.5  0.5  1.0 0.0 0.0
v  0.5 -0.5  0.5  0.0 1.0 0.0
v  0.5  0.5  0.5  0.0 0.0 1.0
v -0.5  0.5  0.5  1.0 1.0 0.0
v -0.5 -0.5 -0.5  1.0 0.0 1.0
v  0.5 -0.5 -0.5  0.0 1.0 1.0
v  0.5  0.5 -0.5  1.0 1.0 1.0
v -0.5  0.5 -0.5  0.5 0.5 0.5

# 6 face normals
vn  0  0  1
vn  0  0 -1
vn  0  1  0
vn  0 -1  0
vn  1  0  0
vn -1  0  0

# 6 faces with normals
f 1//1 2//1 3//1 4//1
f 6//2 5//2 8//2 7//2
f 4//3 3//3 7//3 8//3
f 5//4 6//4 2//4 1//4
f 2//5 6//5 7//5 3//5
f 5//6 1//6 4//6 8//6
